<?xml version="1.0" standalone="no"?>
<!DOCTYPE svg PUBLIC "-//W3C//DTD SVG 20010904//EN"
 "http://www.w3.org/TR/2001/REC-SVG-20010904/DTD/svg10.dtd">
<svg version="1.0" xmlns="http://www.w3.org/2000/svg"
 width="310.000000pt" height="310.000000pt" viewBox="0 0 310.000000 310.000000"
 preserveAspectRatio="xMidYMid meet">
<metadata>
Created by potrace 1.11, written by Peter Selinger 2001-2013
</metadata>
<g transform="translate(0.000000,310.000000) scale(0.100000,-0.100000)"
fill="#000000" stroke="none">
<path d="M0 1550 l0 -1550 1550 0 1550 0 0 566 0 566 -187 -4 c-858 -21 -1623
119 -1623 298 0 77 168 161 427 213 309 62 572 84 1021 85 l362 1 0 142 c0
166 17 148 -150 158 -338 20 -735 86 -975 162 -212 68 -337 144 -369 225 -16
39 -16 45 -1 85 51 133 358 254 842 332 121 20 486 59 593 64 l55 2 3 103 3
102 -1551 0 -1550 0 0 -1550z m1438 888 l-3 -543 -30 0 -30 0 -11 105 c-20
175 -50 255 -131 341 -74 79 -191 109 -425 109 l-108 0 0 -501 0 -502 62 7
c34 4 78 14 98 22 53 22 115 89 145 156 28 61 65 218 65 275 0 47 9 63 36 63
l24 0 0 -605 0 -605 -25 0 c-27 0 -25 -7 -45 154 -21 167 -79 303 -151 359
-45 34 -71 43 -147 52 l-63 7 3 -478 c3 -527 2 -518 66 -578 25 -23 43 -30 94
-35 62 -6 63 -6 63 -36 l0 -30 -407 -2 -408 -2 -6 24 c-9 35 2 45 53 45 68 0
112 25 136 79 33 75 38 256 35 1184 l-3 872 -25 49 c-34 67 -66 89 -140 94
l-60 4 0 59 0 59 528 0 c444 0 537 2 580 15 112 33 162 114 164 264 l1 61 34
0 33 0 -2 -542z m365 -1488 l138 0 -1 -97 c-1 -54 -1 -106 -1 -115 1 -17 17
-18 197 -18 l197 0 -5 115 -5 115 288 0 289 0 0 -390 0 -389 -285 1 -284 2 -3
136 -3 135 -192 3 -193 2 -1 -37 c-1 -40 -3 -91 -7 -185 l-2 -57 -285 0 -285
0 0 389 0 389 103 4 c56 2 125 2 152 1 28 -2 112 -4 188 -4z"/>
</g>
</svg>
